<?xml version="1.0" encoding="UTF-8"?>
<svg width="8px" height="15px" viewBox="0 0 8 15" version="1.1" xmlns="http://www.w3.org/2000/svg" xmlns:xlink="http://www.w3.org/1999/xlink">
    <!-- Generator: Sketch 41.2 (35397) - http://www.bohemiancoding.com/sketch -->
    <title>Path</title>
    <desc>Created with Sketch.</desc>
    <defs></defs>
    <g id="Welcome" stroke="none" stroke-width="1" fill="none" fill-rule="evenodd">
        <g id="5.-Search-1/2-stories" transform="translate(-448.000000, -434.000000)" fill="#000000">
            <path d="M456.01619,443.77431 C456.01619,440.25807 450.32323,440.36272 450.32323,438.56274 C450.32323,437.72554 450.99299,437.26508 452.37437,437.26508 C453.25343,437.26508 454.40458,437.47438 455.15806,437.80926 L455.49294,435.86277 C455.05341,435.73719 454.32086,435.59068 453.79761,435.52789 L453.79761,434 L452.6046,434 L452.6046,435.44417 L452.29065,435.44417 C452.12321,435.44417 451.87205,435.44417 451.62089,435.4651 L451.62089,434 L450.42788,434 L450.42788,435.73719 C449.00464,436.13486 448.06279,437.26508 448.06279,438.70925 C448.06279,442.26735 453.73482,441.7441 453.73482,443.92082 C453.73482,444.77895 453.06506,445.3022 451.59996,445.3022 C450.40695,445.3022 449.17208,444.90453 448.46046,444.33942 L448,446.28591 C448.52325,446.59986 449.2558,446.85102 450.05114,446.99753 L450.05114,448.734721 L451.24415,448.734721 L451.24415,447.14404 L451.64182,447.14404 C451.7674,447.14404 451.9767,447.14404 452.22786,447.12311 L452.22786,448.734721 L453.42087,448.734721 L453.42087,446.89288 C455.05341,446.47428 456.01619,445.3022 456.01619,443.77431 Z" id="Path"></path>
        </g>
    </g>
</svg>