<?xml version="1.0" encoding="UTF-8"?>
<svg width="12px" height="12px" viewBox="0 0 12 12" version="1.1" xmlns="http://www.w3.org/2000/svg" xmlns:xlink="http://www.w3.org/1999/xlink">
    <!-- Generator: Sketch 41.2 (35397) - http://www.bohemiancoding.com/sketch -->
    <title>Rectangle 27</title>
    <desc>Created with Sketch.</desc>
    <defs></defs>
    <g id="Page-1" stroke="none" stroke-width="1" fill="none" fill-rule="evenodd">
        <g id="58.-Story" transform="translate(-202.000000, -5019.000000)" fill="#000000">
            <g id="13" transform="translate(0.000000, 4997.000000)">
                <path d="M208.777778,27.2222222 L208.777778,21.7726426 C208.777778,21.3460693 208.429555,21 208,21 C207.56745,21 207.222222,21.3459239 207.222222,21.7726426 L207.222222,27.2222222 L201.772643,27.2222222 C201.346069,27.2222222 201,27.5704452 201,28 C201,28.4325496 201.345924,28.7777778 201.772643,28.7777778 L207.222222,28.7777778 L207.222222,34.2273574 C207.222222,34.6539307 207.570445,35 208,35 C208.43255,35 208.777778,34.6540761 208.777778,34.2273574 L208.777778,28.7777778 L214.227357,28.7777778 C214.653931,28.7777778 215,28.4295548 215,28 C215,27.5674504 214.654076,27.2222222 214.227357,27.2222222 L208.777778,27.2222222 Z" id="Rectangle-27" transform="translate(208.000000, 28.000000) rotate(45.000000) translate(-208.000000, -28.000000) "></path>
            </g>
        </g>
    </g>
</svg>