<?xml version="1.0" encoding="UTF-8"?>
<svg width="73px" height="41px" viewBox="0 0 73 41" version="1.1" xmlns="http://www.w3.org/2000/svg" xmlns:xlink="http://www.w3.org/1999/xlink">
    <!-- Generator: sketchtool 41.2 (35397) - http://www.bohemiancoding.com/sketch -->
    <title>969B8091-C2BD-41F2-BC0A-B30A21DED2DB</title>
    <desc>Created with sketchtool.</desc>
    <defs></defs>
    <g id="Page-1" stroke="none" stroke-width="1" fill="none" fill-rule="evenodd">
        <g id="Story---Sasha" transform="translate(-655.000000, -19.000000)" fill="#FFFFFF">
            <g id="Group-4-Copy-4">
                <g id="Group-6" transform="translate(655.000000, 19.500000)">
                    <g id="Group-4-Copy-3">
                        <path d="M18.3496688,23.2142553 C18.5577893,25.6551303 18.8364671,27.4673552 18.9757994,27.4673552 C19.2147281,27.4673552 19.9552638,21.2802658 24.0044607,15.5389231 C24.2267931,15.2235901 25.5682273,14.9345112 26.5199359,14.9345112 C27.2518874,14.9345112 27.5929687,15.195624 27.5929687,15.4179266 C27.5929687,16.4575265 25.4597794,21.4072551 25.4597794,27.3900202 C25.4597794,32.0498137 25.6328954,33.7177966 26.4775868,33.7177966 C26.8962704,33.7177966 28.0143702,32.8142873 29.3561535,31.2448667 C29.2427485,30.7462581 29.1684393,30.3853869 29.1684393,30.3853869 L29.1819453,30.3704757 C28.8473158,28.6820328 28.6113485,26.5790421 28.6113485,23.9998342 C28.6113485,15.9860966 32.1998565,9.02394451 33.9699316,9.02394451 C36.1036932,9.02394451 38.2494728,10.8097849 38.2494728,13.4477377 C38.2494728,20.0450688 35.6519835,25.7797076 32.8633312,29.7626612 L32.874361,29.8849202 C32.874361,29.8849202 32.8694053,29.8945438 32.8599252,29.9128779 C33.6929437,35.989326 35.8142488,36.8363111 36.7340642,36.8363111 C37.3752043,36.8363111 38.6475161,35.142432 39.9606631,32.5932785 C39.9723881,32.6237886 39.9857512,32.6579626 40.000655,32.6951794 C39.113812,31.0732038 38.1272901,28.242567 38.1272901,23.903094 C38.1272901,17.5210975 40.6379009,13.1697881 42.5888177,13.1697881 C44.0435642,13.1697881 45.9478398,14.7170598 45.9478398,17.6178376 C45.9478398,21.4128886 44.5544947,26.9258684 42.6205606,31.4073647 L42.6233648,31.4151573 C42.6233648,31.4151573 42.620441,31.4285558 42.6147683,31.4535401 C43.3992344,32.9921876 44.3246385,33.5968 44.8679395,33.5968 C45.468232,33.5968 46.5118157,32.2437847 47.5658819,30.3739553 L47.5710249,30.3992329 C46.9733444,29.2062765 46.3601706,27.3144289 46.3601706,24.7611992 C46.3601706,20.3736479 48.2149437,16.8442018 49.2816814,16.8442018 C50.3850454,16.8442018 52.2481166,18.02934 52.2481166,20.6652952 C52.2481166,22.8560342 51.1500377,26.3318894 49.7035084,29.3560207 L49.7182215,29.4091554 L49.6965803,29.4518946 C50.2864257,30.8836952 51.0433015,31.1312102 51.2700829,31.1312102 C51.950082,31.1312102 54.0516801,27.6257396 55.9958269,23.5915107 L55.8606626,23.3524022 C54.2150698,20.5261634 52.788639,17.6175988 52.788639,14.8543224 C52.788639,9.88661557 55.0920829,7.20699888 56.9105159,7.20699888 C59.4071057,7.20699888 61.0203749,9.78645098 61.0203749,12.8016618 C61.0203749,14.6108812 60.0013543,17.8582575 58.5947342,21.210144 L58.6164841,21.2513523 L58.6059057,21.2946829 C59.3355332,22.6544425 60.1547241,24.0731871 60.9260322,25.491859 L60.9347682,25.4840428 C60.9347682,25.4840428 61.1411258,25.8366448 61.3904352,26.2699242 C61.9205616,25.9508571 62.4493761,25.6409756 62.9657819,25.3378214 L62.927482,25.3618365 C62.927482,25.3618365 62.9161418,25.370939 62.8985948,25.3877414 C62.897085,25.3134481 62.8963225,25.2383463 62.8963225,25.1624283 C62.8963225,20.9923283 64.7754176,17.2816727 67.0788615,17.2816727 C68.1458854,17.2816727 70.3039691,18.4793672 70.3039691,20.6299094 C70.3039691,22.544166 68.307599,24.202864 65.7837246,25.8393596 L65.7825469,25.8709047 L65.7685844,25.8886063 C65.9265792,29.9045903 67.733513,30.7102907 69.0312091,30.7102907 C70.3523272,30.7102907 71.6494093,29.1633043 71.8311095,27.4596502 C71.8411245,27.3666199 71.9324038,27.3049801 71.9950689,27.3049801 C72.2254133,27.3049801 73,27.8577403 73,28.7543703 C73,30.3744111 71.2253467,31.811245 68.9676855,31.811245 C67.061689,31.811245 64.0914511,30.9049026 63.1750255,27.4667287 L63.1700306,27.4675849 C63.1700306,27.4675849 63.169092,27.4648161 63.1673294,27.4595361 C62.872083,27.6388614 62.5763257,27.8188356 62.2819528,27.9997598 C62.2889084,28.0762584 62.2724481,28.1094736 62.2724481,28.1094736 L62.2701883,28.1111329 C63.2113842,30.1035691 63.8817959,32.0214186 63.8817959,33.6929694 C63.8817959,37.9837806 60.799187,40.4459459 58.0450693,40.4459459 C56.5846001,40.4459459 53.8708284,38.9751531 53.8708284,35.2168409 C53.8708284,32.2126067 56.00355,29.9442833 58.6422505,28.0515088 L58.6055052,27.9585602 C58.0587544,26.9973228 57.4529959,26.0088616 56.8449478,25.0038699 L56.8651029,24.9889481 C54.7933626,29.159165 52.4754393,32.6662111 51.2577788,32.6662111 C50.2637211,32.6662111 49.1483392,32.243294 48.6020939,31.8743116 C48.5564255,31.8434848 48.4952846,31.7886174 48.4224607,31.7099354 L48.4465801,31.7124517 C47.1658556,33.8538649 45.7918157,35.3857795 44.7225794,35.3857795 C43.3152507,35.3857795 41.8498875,34.8353341 41.2169927,34.3392244 C41.2088343,34.3381347 41.2006853,34.3368057 41.1925468,34.335243 C39.6463966,37.1191256 37.9216068,39.029944 36.3400466,39.029944 C34.278965,39.029944 31.9755211,37.0900043 31.326837,36.0989171 C31.1662702,35.8534286 30.7578126,35.2378769 30.3050427,34.1608264 C30.1955414,34.1524252 30.0494239,33.8091651 29.8985218,33.3327507 C28.4268084,34.8018196 27.1678989,35.6155017 26.5502669,35.6155017 C25.6411935,35.6155017 23.62847,33.9352479 23.0830831,33.3550923 C22.5374101,32.7749368 22.2100636,31.6691312 22.2100636,27.770988 C22.2100636,23.8911085 23.056758,21.3690156 23.4710918,19.7210086 C21.22831,23.903094 20.2582883,30.8170188 19.3369108,30.8170188 C18.7912378,30.8170188 16.8992662,30.140123 16.6082597,29.8499026 C16.5377839,29.7796172 16.4074785,29.5204668 16.2504926,29.0443231 L16.2312941,29.0110722 C14.0398459,34.4320373 11.6974982,38.502011 9.97405514,38.502011 C7.35871636,38.502011 4.03689273,35.9981818 2.7758645,33.7620288 C2.19213462,32.7267094 0,28.5489044 0,22.5435952 C0,8.24032071 4.19484317,3.09425812 5.9900987,3.09425812 C9.40777993,3.09425812 11.7389796,5.41687795 12.4543349,6.39198447 C12.9321922,7.04348233 13.4017513,8.49230171 13.4017513,10.8363242 C13.4017513,16.8073891 9.93628439,18.8434983 8.60887119,18.8434983 C8.34504817,18.8434983 8.02571359,18.6985308 8.02571359,18.4031737 C8.02571359,18.1078165 9.95860347,15.5985653 9.95860347,10.3529088 C9.95860347,8.10477035 9.28101898,6.23189236 8.24404001,6.23189236 C6.59528924,6.23189236 3.83087042,12.1704252 3.83087042,22.4953678 C3.83087042,29.4224195 6.96469869,36.0464092 9.77718938,36.0464092 C10.9235963,36.0464092 13.2662555,31.2736177 15.4806026,25.2964486 L15.4811871,25.381065 C15.2146023,23.4427583 15.0087254,20.8115118 15.0087254,17.3641444 C15.0087254,7.68213858 17.8698602,-7.10542736e-14 19.2035685,-7.10542736e-14 C20.6371405,-7.10542736e-14 21.6363487,0.64065383 22.1345221,1.5310057 C22.3728784,1.95763264 22.4761757,3.50319217 22.4761757,4.64837873 C22.4761757,8.55452277 20.6901532,16.19565 18.3469895,23.2312978 L18.3496688,23.2142553 Z M18.0882374,17.3969888 C18.0974458,12.6954485 19.357852,4.07592813 20.3075048,4.07592813 C20.4557264,4.07592813 20.6090985,4.14669969 20.6090985,4.74511888 C20.6090985,7.65568881 19.5638908,12.4387247 18.1023507,17.4000181 L18.100609,17.3893637 L18.0882396,17.3969874 Z M65.8691579,23.5510217 C67.4488841,22.4755603 68.5338941,21.4245428 68.5338941,20.2672052 C68.5338941,19.8568443 68.3882478,19.143136 67.9035231,19.143136 C67.4947901,19.143136 66.2508391,20.6367931 65.8696749,23.5371733 L65.8691579,23.5510217 Z M59.6466371,29.9316861 C60.3165174,31.3404757 60.7539766,32.6675256 60.7539766,33.8741789 C60.7539766,37.1134046 59.4162623,38.9229306 58.1177494,38.9229306 C57.1033757,38.9229306 55.5530578,37.6419083 55.5530578,35.2622146 C55.5530578,33.1729933 57.2756103,31.4105832 59.5434366,29.787952 L59.6466371,29.9316861 Z M57.7495506,19.6840823 C58.9237077,16.8479963 59.7779459,14.2141075 59.7779459,12.7896763 C59.7779459,11.3514156 58.9063571,10.1522943 58.15924,10.1522943 C57.0318402,10.1522943 56.334798,11.4578583 56.334798,15.0355318 C56.334798,16.3372013 56.9216128,17.9275693 57.7679813,19.6660183 L57.7495506,19.6840823 Z M49.1502353,27.3579385 C49.0211601,26.5217447 48.9423169,25.5038469 48.9423169,24.2657983 C48.9423169,21.9329052 49.8880165,19.8539906 50.2880432,19.8539906 C50.5790497,19.8539906 50.9335798,20.1681821 50.9335798,20.9175616 C50.9335798,22.4439248 50.1390677,24.9212779 49.1021151,27.2829993 L49.121089,27.2526801 L49.1502353,27.3579385 Z M41.675773,28.7819038 C43.0575998,25.2633752 44.1631716,21.1372429 44.1631716,17.5815958 C44.1631716,16.6144796 43.7565636,16.2786 43.3977414,16.2786 C42.7221599,16.2786 41.2067514,19.9267598 41.2067514,23.8788377 C41.2067514,25.9106098 41.4048388,27.5623339 41.7141996,28.8886872 L41.675773,28.7819038 Z M32.5715846,26.628173 C32.5348361,25.8379357 32.5151851,24.9874822 32.5151851,24.072318 C32.5151851,17.835289 34.9883113,12.5653761 35.7400066,12.5653761 C36.2127133,12.5653761 36.3946997,12.8624455 36.3946997,13.6049761 C36.3946997,18.4916011 34.6329753,23.081322 32.5815212,26.6389728 L32.579735,26.6191746 L32.5715846,26.628173 Z" id="Cheese-Logo"></path>
                    </g>
                </g>
            </g>
        </g>
    </g>
</svg>