<?xml version="1.0" encoding="UTF-8"?>
<svg width="9px" height="16px" viewBox="0 0 9 16" version="1.1" xmlns="http://www.w3.org/2000/svg" xmlns:xlink="http://www.w3.org/1999/xlink">
    <!-- Generator: sketchtool 41.2 (35397) - http://www.bohemiancoding.com/sketch -->
    <title>DEC54C29-F3C7-4004-981B-056C29CCFB98</title>
    <desc>Created with sketchtool.</desc>
    <defs></defs>
    <g id="Welcome" stroke="none" stroke-width="1" fill="none" fill-rule="evenodd">
        <g id="5.-Search-1/2-stories" transform="translate(-707.000000, -436.000000)" fill="#FFFFFF">
            <g id="Search-results" transform="translate(431.000000, 79.000000)">
                <path d="M284.059565,367.22256 C284.059565,363.70632 278.366605,363.81097 278.366605,362.01099 C278.366605,361.17379 279.036365,360.71333 280.417745,360.71333 C281.296805,360.71333 282.447955,360.92263 283.201435,361.25751 L283.536315,359.31102 C283.096785,359.18544 282.364235,359.03893 281.840985,358.97614 L281.840985,357.44825 L280.647975,357.44825 L280.647975,358.89242 L280.334025,358.89242 C280.166585,358.89242 279.915425,358.89242 279.664265,358.91335 L279.664265,357.44825 L278.471255,357.44825 L278.471255,359.18544 C277.048015,359.58311 276.106165,360.71333 276.106165,362.1575 C276.106165,365.7156 281.778195,365.19235 281.778195,367.36907 C281.778195,368.2272 281.108435,368.75045 279.643335,368.75045 C278.450325,368.75045 277.215455,368.35278 276.503835,367.78767 L276.043375,369.73416 C276.566625,370.04811 277.299175,370.29927 278.094515,370.44578 L278.094515,372.18297 L279.287525,372.18297 L279.287525,370.59229 L279.685195,370.59229 C279.810775,370.59229 280.020075,370.59229 280.271235,370.57136 L280.271235,372.18297 L281.464245,372.18297 L281.464245,370.34113 C283.096785,369.92253 284.059565,368.75045 284.059565,367.22256 Z" id="Path"></path>
            </g>
        </g>
    </g>
</svg>