<?xml version="1.0" encoding="UTF-8"?>
<svg width="23px" height="20px" viewBox="0 0 23 20" version="1.1" xmlns="http://www.w3.org/2000/svg" xmlns:xlink="http://www.w3.org/1999/xlink">
    <!-- Generator: Sketch 41.2 (35397) - http://www.bohemiancoding.com/sketch -->
    <title>“</title>
    <desc>Created with Sketch.</desc>
    <defs></defs>
    <g id="Page-1" stroke="none" stroke-width="1" fill="none" fill-rule="evenodd">
        <g id="Story---Sasha" transform="translate(-530.000000, -1521.000000)" fill="#000000">
            <g id="Group-4-Copy" transform="translate(0.000000, 1423.000000)">
                <path d="M539.647477,117.84375 L530.803727,117.84375 L530.803727,111.59375 C530.803727,108.114566 531.387054,105.380218 532.553727,103.390625 C533.720399,101.401032 535.741212,99.8854219 538.616227,98.84375 L540.366227,102.5 C537.032877,103.583339 535.366227,105.781233 535.366227,109.09375 L539.647477,109.09375 L539.647477,117.84375 Z M552.116227,117.90625 L543.303727,117.90625 L543.303727,111.65625 C543.303727,108.177066 543.881846,105.442718 545.038102,103.453125 C546.194357,101.463532 548.220379,99.9479219 551.116227,98.90625 L552.834977,102.5625 C549.501627,103.645839 547.834977,105.843733 547.834977,109.15625 L552.116227,109.15625 L552.116227,117.90625 Z" id="“"></path>
            </g>
        </g>
    </g>
</svg>